<svg id="图层_1" data-name="图层 1" xmlns="http://www.w3.org/2000/svg" viewBox="0 0 4899.72 845.45"><path d="M34.88,572.36q22.18-36.08,39.77-68.45t31.45-62.44q13.88-30,25.9-58.74t23.12-57.35H287.4V259.71H442.8q11.1-18.49,20.81-37a344.67,344.67,0,0,0,16.19-35.15H424.3l-31.45,54.57H267.05q31.44-49.95,50.87-88.34a815.19,815.19,0,0,0,35.16-80H478l-12,28.68H637.05q-15.74,44.4-33.3,83.71t-36.08,73.54h69.38V582.53H287.4V333.71q-12,32.39-25,62.9T235.6,456.73v462.5H104.25V572.36Zm0-263.63q41.61-66.6,72.14-124t53.65-111H294.8Q268,137.6,237.91,195.42T171.77,308.73Zm231.24,610.5q24-50,44.4-101.75t37-104.52H272.6v-85.1h99.9l9.25-36.08H512.17l-9.25,36.08H663V713H478q-1.86,5.55-3.7,11.1t-3.7,11.1H564.9q16.65,42.55,32.84,87t32.84,97.12h-124q-10.19-35.16-21.73-71.69t-25.44-77.23q-13.87,38.85-28.68,76.31t-30.52,72.61Zm122.11-536.5h37.92v-37H388.23Zm0,113.78h37.92v-37H388.23ZM498.3,345.73v37h37.93v-37Zm37.93,150.78v-37H498.3v37ZM654.62,919.23q29.6-29.61,46.26-77.24t16.64-108.68v-283H653.7V334.63h234V450.26H852.58v283q0,55.5-9.25,104.06t-25.91,81.86ZM877.55,106.16v114.7H665.73V106.16Z" transform="translate(-34.88 -73.78)"/><path d="M1401.1,686.13h-308V185.71h308v-111h160v111H1871V686.13H1561.12V918.31h-160ZM1248.48,559.41H1401.1v-247H1248.48Zm312.64-247v247h153.55v-247Z" transform="translate(-34.88 -73.78)"/><path d="M2073.58,886.86q5.55-50.9,11.56-124t11.1-152.17q5.07-79.08,8.79-156.32t4.62-137.36h88.8q0,56.43-2.31,133.2t-5.55,157.25Q2187.34,688,2182.72,762t-8.32,124.88Zm146.14-602.18H2085.6V175.53h134.12V73.78h114.7V175.53H2437.1V284.68H2334.42V919.23h-114.7Zm152.63,460.65q-.93-40.7-2.77-96.66T2365,533.51q-2.77-59.19-5.55-116.09t-5.55-100.36h74.93q3.67,44.4,7.39,101.75t6.94,116.55q3.24,59.21,5.09,114.23t2.77,95.74Zm388.5,96.2q-22.2,44.4-44.4,77.7h-148q32.37-50,61.05-105T2685,699.08q-21.28-40.7-40.24-80.94t-37.46-80.93q-10.18,124-25,221.07t-34.23,161h-136q42.54-126.74,61.05-302.47t27.75-405.15h-49V89.51h454.18q-13.87,66.6-30.07,132.27t-38.39,136.9h86q-19.43,95.28-46.71,185T2819.12,712q32.37,61.05,63.37,115.63t55,91.57H2805.25Zm-133.2-629.92q-5.55,133.2-13.87,249.75H2697q16.63,39.78,42.55,93.42,9.23-27.75,17.57-56.42t15.73-58.28h-96.21q25-74.93,41.17-134.12t23.58-94.35Z" transform="translate(-34.88 -73.78)"/><path d="M3660.88,606.58q-26.85-9.24-62-23.12T3524,552a1107.58,1107.58,0,0,1-123,54.57H3113.28q72.15-25.89,142.91-55.5T3392.62,490l-88.79-43.47q-20.37,20.35-35.16,32.37H3094.78q25-23.12,54.57-53.19t58.74-61.51q29.13-31.44,54.11-61.51t38.85-52.26h171.12q-5.55,9.25-12,18t-13.87,19h451.39q-44.39,47.18-108.68,97.12t-139.21,97.13l64.75,27.75q32.35,13.88,68,28.67T3859.75,570q41.63,17.13,91.58,36.54ZM3771,228.26H3262.2v48.1H3112.35v-161h309q-12-27.75-19.42-41.63h192.4q3.67,7.41,7.86,18t8.78,23.59H3920.8v161H3771Zm115.63,402.37v288.6H3147.5V630.63ZM3302.9,811.93h428.27V738.86H3302.9Zm65.68-432-21.28,22.2h85.1l74,30.52q24-12.94,46.71-26.36t43-26.36Z" transform="translate(-34.88 -73.78)"/><path d="M4934.6,88.58V919.23H4134.47V88.58ZM4276,811h518V199.58H4276Zm72.15-527.25q-4.63-15.72-9.25-30.53t-9.25-28.67h98.05a239.36,239.36,0,0,1,9.71,26.36q5.07,16.18,9.71,32.84H4474q15.72-37.92,24.05-68.45h103.6a685.18,685.18,0,0,1-19.43,68.45H4622q6.47-14.79,12-30.07t10.18-29.13h97.13q-4.65,14.81-8.79,30.06t-8.79,29.14h34.22v81.4h-207.2a255.35,255.35,0,0,1-14.8,31.45h235v80.47h-60.13q19.42,24.06,39.31,48.1t39.32,44.4h-67.53v25.9A156,156,0,0,1,4716.3,644a137.67,137.67,0,0,1-18.5,40.24H4571.08a386.51,386.51,0,0,0,31.45-35.15q12.93-16.65,16.64-49H4451.75V701.86h311.72v86H4350V569.58h-67.53a529.58,529.58,0,0,0,39.32-42.09q19.88-23.58,40.24-50.41h-62.91V396.61h116.55l18.5-31.45H4312.08v-81.4Zm113.77,235h164.66q-7.42-10.17-14.34-20.35t-14.34-21.28H4491.53Z" transform="translate(-34.88 -73.78)"/></svg>